<?xml version="1.0" encoding="UTF-8" standalone="no" ?>
<!DOCTYPE svg PUBLIC "-//W3C//DTD SVG 1.1//EN" "http://www.w3.org/Graphics/SVG/1.1/DTD/svg11.dtd">
<svg xmlns="http://www.w3.org/2000/svg" xmlns:xlink="http://www.w3.org/1999/xlink" version="1.1" width="1080" height="1080" viewBox="0 0 1080 1080" xml:space="preserve">
<desc>Created with Fabric.js 5.2.4</desc>
<defs>
</defs>
<g transform="matrix(1 0 0 1 540 540)" id="f2098401-63d4-4972-ab94-32f503bda677"  >
<rect style="stroke: none; stroke-width: 1; stroke-dasharray: none; stroke-linecap: butt; stroke-dashoffset: 0; stroke-linejoin: miter; stroke-miterlimit: 4; fill: rgb(255,255,255); fill-rule: nonzero; opacity: 1; visibility: hidden;" vector-effect="non-scaling-stroke"  x="-540" y="-540" rx="0" ry="0" width="1080" height="1080" />
</g>
<g transform="matrix(1 0 0 1 540 540)" id="16c39cf5-1b23-40c2-bb05-d13980f548cd"  >
</g>
<g transform="matrix(-1 0 0 -1 540 540)" id="21a0aa99-57ce-40f9-b2bf-93ef90381e27"  >
<path style="stroke: rgb(0,0,0); stroke-width: 0; stroke-dasharray: none; stroke-linecap: butt; stroke-dashoffset: 0; stroke-linejoin: miter; stroke-miterlimit: 4; fill: rgb(255,56,92); fill-rule: nonzero; opacity: 1;" vector-effect="non-scaling-stroke"  transform=" translate(-128, -137.29)" d="M 252.154 194.867 C 250.923 191.411 249.484 188.06699999999998 248.115 184.969 C 246.008 180.203 243.80100000000002 175.428 241.666 170.81199999999998 L 241.49699999999999 170.44599999999997 C 222.457 129.21599999999998 202.022 87.41999999999997 180.759 46.223999999999975 L 179.856 44.473999999999975 C 177.68699999999998 40.26799999999997 175.445 35.91799999999998 173.144 31.643999999999977 C 170.41421141315269 26.234309081962834 167.10299696099779 21.13822429777551 163.269 16.445999999999977 C 158.9495013813018 11.295188288391792 153.55357070642748 7.1536886123891374 147.46099999999998 4.312999999999967 C 135.11961131159964 -1.4390468782664927 120.86591093531085 -1.4372164300353152 108.52600000000001 4.317999999999966 C 102.43448313448769 7.160345623107531 97.03992741451304 11.303203303019725 92.72200000000002 16.454999999999963 C 88.89184792372444 21.14792247588346 85.58246194800135 26.242767450666882 82.85200000000002 31.649999999999956 C 80.53200000000001 35.96299999999998 78.268 40.35299999999998 76.07900000000001 44.598999999999975 L 75.24100000000001 46.223999999999975 C 53.97700000000002 87.42399999999998 33.542000000000016 129.21799999999996 14.503000000000014 170.445 L 14.225000000000014 171.045 C 12.127000000000013 175.58499999999998 9.958000000000013 180.28099999999998 7.886000000000013 184.96699999999998 C 6.516000000000013 188.063 5.080000000000013 191.404 3.8470000000000137 194.86899999999997 C 0.3166622123367766 204.30702311462062 -0.8085062518241743 214.47546676690962 0.5730000000000128 224.45699999999997 C 2.03969320081187 234.54670660193148 6.119689068199605 244.07738389384537 12.408000000000015 252.10299999999995 C 18.701972320387313 260.13487075559186 26.984178643298026 266.3840120727787 36.435 270.23199999999997 C 43.5771384274158 273.12107167364064 51.21167733162733 274.5979903914208 58.916000000000025 274.58099999999996 C 61.33600000000002 274.58099999999996 63.75500000000002 274.43899999999996 66.15900000000002 274.15899999999993 C 75.90225642392616 272.9180257793612 85.30038497029892 269.74724100989044 93.80400000000003 264.83199999999994 C 104.95600000000002 258.56699999999995 115.96900000000002 249.38599999999994 128 236.26599999999993 C 140.031 249.38599999999994 151.044 258.56699999999995 162.196 264.83199999999994 C 170.6996150297011 269.74724100989044 180.09774357607384 272.9180257793612 189.841 274.15899999999993 C 192.24555359042932 274.43872486255765 194.6642310978012 274.5796251811815 197.08499999999998 274.58099999999996 C 204.7889863414272 274.597861085518 212.42317333715022 273.12094474902335 219.565 270.23199999999997 C 229.01593545021151 266.38373200859695 237.29815308710948 260.1342374501019 243.59199999999998 252.10199999999998 C 249.880913083068 244.07701291081582 253.96129661261347 234.54658010629703 255.428 224.45699999999997 C 256.80772984976835 214.47478397073044 255.6826141554372 204.3061299098696 252.154 194.86699999999996 M 128 209.17 C 113.107 190.29199999999997 103.55 172.761 100.196 158.064 C 98.8222641871075 152.5571674523077 98.49794509601797 146.84087384889892 99.24 141.214 C 99.82534000671264 137.08778013538287 101.34084343815593 133.1485654399346 103.672 129.694 C 106.54188218150183 125.97442863210811 110.22714673383793 122.9631309538996 114.444 120.892 C 122.9953313225115 116.69374466227437 133.00928807357008 116.69448326359839 141.56 120.89399999999998 C 145.77623276104845 122.9656738528176 149.4608002975496 125.97730319579064 152.32999999999998 129.69699999999997 C 154.65988258841574 133.15296615581127 156.1752557902872 137.09252618107368 156.762 141.21899999999997 C 157.50350906030096 146.84809246566067 157.17782872787356 152.56649630253153 155.802 158.075 C 152.444 172.77 142.89 190.296 128 209.17 M 238.03199999999998 221.97199999999998 C 237.00536813630305 229.02637654946446 234.15276514204965 235.6899192538655 229.75699999999998 241.30199999999996 C 225.3554381172309 246.9174753743326 219.56464926694431 251.2871081276114 212.95699999999997 253.97899999999996 C 206.2716775046724 256.6579674951352 199.01842114721515 257.60658666404015 191.86899999999997 256.73699999999997 C 184.4384799255008 255.78037834314966 177.27730529556501 253.33459317269762 170.81399999999996 249.54599999999996 C 160.88799999999998 243.96899999999997 150.83999999999997 235.40799999999996 139.53399999999996 222.84999999999997 C 157.53299999999996 200.65499999999997 168.77299999999997 180.19799999999998 172.93399999999997 161.97699999999998 C 174.8072375782676 154.31546289863255 175.21338604347338 146.3685930543679 174.13099999999997 138.55599999999998 C 173.14911997831854 131.82461600921434 170.6505563121393 125.40432979104254 166.82399999999996 119.77999999999997 C 162.33895963220402 113.70740893933 156.49021639346418 108.7732276008792 149.74899999999997 105.37499999999997 C 136.0709323950244 98.47860747440293 119.9327017710693 98.4778654014923 106.25399999999998 105.37299999999999 C 99.51299784328303 108.77065734606353 93.6642732463032 113.70413789483662 89.17899999999999 119.776 C 85.35279083823552 125.39876539576889 82.85391276028149 131.81727119780436 81.87099999999998 138.54700000000003 C 80.78747155292226 146.3562044913254 81.19123911622887 154.29990717379124 83.06099999999998 161.95900000000003 C 87.22099999999998 180.188 98.46099999999998 200.649 116.46699999999998 222.851 C 105.15999999999998 235.408 95.11199999999998 243.969 85.18599999999998 249.547 C 78.72261816699763 253.3352429635026 71.56144777208817 255.7806865702183 64.13099999999997 256.737 C 56.98125043833726 257.60675761442735 49.727628571675346 256.6581356262699 43.04199999999997 253.979 C 36.43435073305563 251.28710812761142 30.64356188276904 246.91747537433267 26.241999999999976 241.30200000000002 C 21.84695172633571 235.6897085060535 18.99504548325786 229.02618285892493 17.96899999999997 221.97200000000004 C 16.983958109095443 214.8026583716516 17.822115300506777 207.5006824459831 20.40599999999997 200.74100000000004 C 21.388999999999974 197.98000000000005 22.537999999999975 195.27000000000004 23.961999999999975 192.05100000000004 C 25.976999999999975 187.49600000000004 28.114999999999974 182.86600000000004 30.182999999999975 178.39000000000004 L 30.460999999999974 177.78800000000004 C 49.394 136.792 69.716 95.23 90.864 54.255 L 91.706 52.624 C 93.85900000000001 48.446000000000005 96.086 44.127 98.33200000000001 39.954 C 100.48103413384887 35.65196377658367 103.08167003982487 31.590774810239353 106.09 27.83900000000001 C 108.75753683276996 24.616829146143786 112.10393179775127 22.023714517157238 115.89 20.244999999999997 C 127.63283785467897 14.725122394349036 141.62259623390668 17.846753030784086 149.90500000000003 27.835000000000008 C 152.9156404352927 31.584089793119812 155.51707321962468 35.64413521206889 157.66499999999996 39.945999999999955 C 159.89 44.082 162.09699999999998 48.361999999999995 164.232 52.501 L 165.136 54.257 C 186.283 95.227 206.605 136.788 225.54 177.792 L 225.70999999999998 178.161 C 227.814 182.713 229.98999999999998 187.418 232.03799999999998 192.052 C 233.46399999999997 195.27599999999998 234.61499999999998 197.988 235.59499999999997 200.739 C 238.17711520923905 207.49981189423985 239.01521553475246 214.80198022071764 238.03199999999998 221.972" stroke-linecap="round" />
</g>
</svg>